<?xml version="1.0" ?><!DOCTYPE svg  PUBLIC '-//W3C//DTD SVG 1.1//EN'  'http://www.w3.org/Graphics/SVG/1.1/DTD/svg11.dtd'><svg enable-background="new 0 0 512 512" height="512px" id="Layer_1" version="1.1" viewBox="0 0 512 512" width="512px" xml:space="preserve" xmlns="http://www.w3.org/2000/svg" xmlns:xlink="http://www.w3.org/1999/xlink"><g><path d="M206,266c-2.209,0-4-1.791-4-4V122c0-1.061,0.422-2.078,1.172-2.828l50-50   C253.952,68.391,254.977,68,256,68s2.048,0.391,2.828,1.172l50,50c0.75,0.75,1.172,1.768,1.172,2.828v140c0,2.209-1.791,4-4,4H206z   " fill="#FF3333"/><path d="M256,72l50,50v140H206V122L256,72 M256,64c-2.048,0-4.095,0.781-5.657,2.343l-50,50   c-1.5,1.501-2.343,3.535-2.343,5.657v140c0,4.418,3.582,8,8,8h100c4.418,0,8-3.582,8-8V122c0-2.122-0.843-4.156-2.343-5.657l-50-50   C260.095,64.781,258.048,64,256,64L256,64z" fill="#660033"/></g><g><g><polygon fill="#CC3366" points="306,192.145 306,171.779 206,190.97 206,211.334   "/></g><g><polygon fill="#CC3366" points="306,151.414 306,131.05 206,150.239 206,170.604   "/></g><g><polygon fill="#CC3366" points="296.507,112.507 279.42,95.42 221.456,106.544 206,122 206,129.875   "/></g><g><polygon fill="#CC3366" points="262.334,78.334 256,72 246.657,81.343   "/></g><g><polygon fill="#CC3366" points="306,232.874 306,212.509 206,231.699 206,252.064   "/></g><g><polygon fill="#CC3366" points="260.347,262 306,262 306,253.239   "/></g></g><path d="M206,443.75c0,2.209-1.791,4-4,4l0,0c-2.209,0-4-1.791-4-4v-180c0-2.209,1.791-4,4-4l0,0  c2.209,0,4,1.791,4,4V443.75z" fill="#660033"/><path d="  M306,317c-27.614,0-50-22.386-50-50" fill="none" stroke="#660033" stroke-linecap="round" stroke-linejoin="round" stroke-miterlimit="10" stroke-width="8"/><polygon fill="#FF6633" points="311,287.334 318.721,302.979 335.985,305.487 323.493,317.665 326.442,334.859 311,326.741   295.558,334.859 298.507,317.665 286.015,305.487 303.279,302.979 "/><polygon fill="#FF3333" points="275.508,311.097 281.131,322.491 293.705,324.318 284.606,333.187 286.754,345.71 275.508,339.797   264.262,345.71 266.409,333.187 257.311,324.318 269.885,322.491 "/><polygon fill="#FF3333" points="311,331.236 315.703,340.766 326.219,342.294 318.609,349.71 320.405,360.184 311,355.238   301.595,360.184 303.391,349.71 295.782,342.294 306.298,340.766 "/></svg>